<svg version="1" xmlns="http://www.w3.org/2000/svg" width="682.667" height="682.667" viewBox="0 0 512.000000 512.000000"><path d="M291.5 25.3c-5.4 2.2-9 4.5-11.6 7.4-9.2 9.9-9.7 25.3-1.2 35.3l3.5 4-50.9.1c-27.9 0-53 .2-55.6.4-11.6.9-24.5 7.3-34.3 17-12 12-17.6 26.3-16.9 43.7.3 9.1.8 10.9 21.9 74.1l21.6 64.9-4.9 18.6c-2.6 10.3-5.4 21.1-6.2 23.9l-1.3 5.3H95.8c-64.9 0-64.3-.1-68.6 5.5-3.4 4.3-3.7 8.6-1.3 17.8 1.2 4.5 2.4 8.9 2.6 9.8.2 1 1.8 6.8 3.5 13 1.8 6.3 3.3 12.1 3.5 12.9 1.4 6.9 18 67.1 19.1 69.2.8 1.5 1.4 3.8 1.4 5.3v2.5H24v32h464v-32h-32v-16h12.3c14.6-.1 19.3-1.8 24.2-8.8l3-4.4.3-21.6c.3-21.2.2-21.8-2.1-26.2-1.3-2.5-4.3-5.9-6.6-7.5-4.1-2.9-4.6-3-17.7-3.3l-13.4-.4V352h-12.9l1.1-3.3c.5-1.7 1.4-5 2-7.2.5-2.2 1.2-4.9 1.5-6 2.9-11.9-.9-21.6-11.2-28.3-3.8-2.5-4.9-2.7-18.8-3l-14.7-.4 10.5-7.9c5.7-4.4 12.1-8.9 14.2-10 16.6-9.3 23.5-13.9 29.9-20.3 6.6-6.6 12.4-14.5 15-20.6.6-1.4 1.6-3.6 2.2-5 3.2-7.2 4.6-15 4.6-25.5.1-15.3-1.7-23.3-7.5-34.8-7.1-14.2-11.6-18.4-50.4-47.5-18.7-14-34.3-25.8-34.8-26.1-.4-.4.7-4.5 2.4-9.1 2.6-7.3 3-9.4 2.5-15-.2-3.6-.8-7.4-1.2-8.5-3.1-8.7-6.6-13.6-13.4-18.6-2.9-2.2-35.5-16.3-63.5-27.6-7-2.8-17.6-3.8-22-2zm-36.6 105.4c-1.1 2.7-2.7 6.1-3.4 7.8-9.7 21.5-11.8 27.2-11.9 32.5 0 5.5 1.7 9.6 5.4 12.8.8.7 6.1 3.5 11.7 6.3l10.2 4.9-3.5 8.2c-7.9 18.6-11.7 26.8-12.3 26.7-.3 0-4.8-1.5-10-3.2l-9.4-3.2-12.2-24.5c-6.7-13.5-15.6-33.1-19.8-43.5l-7.5-19 2.6-.7c1.5-.4 4.5-1 6.7-1.3 2.2-.3 8.1-1.2 13-2 5-.8 11-1.7 13.5-2 2.5-.3 7-1 10-1.5s7.5-1.3 10-1.6c2.5-.3 4.7-.8 4.9-1 .2-.2 1.2-.4 2.2-.4 1.7 0 1.7.3-.2 4.7zm120 37.1c3.6 3.5 14.3 14 23.8 23.3l17.2 16.9-11.7 7.9c-6.5 4.3-24.5 15.1-40 24L336.1 256l-6.5-2c-3.6-1.1-6.7-2.4-6.9-2.8-.3-.4.8-3.4 2.3-6.7 3.4-7.4 3.2-6.9 18.5-42 7-16 14.3-32.7 16.3-37.2l3.6-8.3 2.4 2.3c1.4 1.2 5.4 5.1 9.1 8.5zm103.9 217.4c1.7 1.7 1.7 35.9 0 37.6-.8.8-4.9 1.2-12 1.2H456v-40h10.8c7.1 0 11.2.4 12 1.2z"/></svg>